<?xml version="1.0" encoding="utf-8"?>
<!-- Generator: Adobe Illustrator 27.5.0, SVG Export Plug-In . SVG Version: 6.00 Build 0)  -->
<svg version="1.1" id="Layer_1" xmlns="http://www.w3.org/2000/svg" xmlns:xlink="http://www.w3.org/1999/xlink" x="0px" y="0px"
	 viewBox="0 0 2652.4 524.8" style="enable-background:new 0 0 2652.4 524.8;" xml:space="preserve">
<polygon points="1410.1,20.7 1353,504.8 1430.6,504.8 1452.3,139.3 1472.9,504.8 1551.6,504.8 1494,20.7 "/>
<path d="M109.6,109.6l394.6,301.1v93.5h-93.5L109.6,109.6 M0,0l400.5,524.8h124.3V400.5L0,0L0,0z"/>
<polygon points="505.3,20.6 83.7,20.6 505.3,327.5 "/>
<polygon points="21.6,506.2 328.4,506.2 21.6,84.8 "/>
<path d="M774.4,296.9c6.7-6.3,11.2-14.2,13.7-23.6c0.8-3.3,1.5-6.8,1.9-10.6c1.1-6.7,1.7-14,1.7-21.8V95.1c0-12.4-1.3-23.2-3.6-32.5
	c-2.5-9.3-7.1-17.1-13.7-23.3c-6.5-6.3-15.4-10.8-26.7-14c-11.1-3.1-25.4-4.6-42.8-4.6H618v484.2h77.6V315.5h6.2l17.4,189.3h76.9
	l-22.5-207.5C774,297.2,774.2,297.1,774.4,296.9z M714.2,239.7c0,1.7-0.3,3.2-0.7,4.4c-0.4,1.2-1,2.1-1.8,2.8
	c-0.8,0.6-1.8,1.1-2.8,1.5c-1.1,0.4-2.4,0.6-4,0.6h-9.3V87.7h8.6c1.7,0,3.2,0,4.4,0.3c1.1,0.1,2.2,0.7,3.1,1.5
	c0.8,0.8,1.4,1.8,1.8,2.8c0.4,1.1,0.7,2.6,0.7,4.7V239.7z"/>
<polygon points="906.6,312.5 958.1,312.5 958.1,245.4 906.6,245.4 906.6,87.7 967.4,87.7 967.4,20.7 829,20.7 829,504.8 
	969.9,504.8 969.9,437.8 906.6,437.8 "/>
<path d="M1311.3,296.9c6.5-6.3,11.1-14.2,13.6-23.6c0.8-3.3,1.7-6.8,2.1-10.6c1.1-6.7,1.7-14,1.7-21.8V95.1
	c0-12.4-1.2-23.2-3.7-32.5c-2.5-9.3-7.1-17.1-13.6-23.3c-6.7-6.3-15.6-10.8-26.7-14c-11.3-3.1-25.6-4.6-42.9-4.6h-86.8v242.1v242.1
	h77.5V315.5h6.3l17.4,189.3h76.9l-22.4-207.5C1310.8,297.2,1311.1,297.1,1311.3,296.9z M1251.1,239.7c0,1.7-0.1,3.2-0.6,4.4
	c-0.4,1.2-1.1,2.1-1.9,2.8c-0.8,0.6-1.7,1.1-2.8,1.5c-1,0.4-2.4,0.6-4,0.6h-9.3V87.7h8.7c1.7,0,3.1,0,4.3,0.3
	c1.2,0.1,2.2,0.7,3.1,1.5c0.8,0.8,1.5,1.8,1.9,2.8c0.4,1.1,0.6,2.6,0.6,4.7V239.7z"/>
<polygon points="993.6,504.8 1071.1,504.8 1071.1,312.3 1127,312.3 1127,262.7 1127,245.4 1071.1,245.4 1071.1,87.7 1131.9,87.7 
	1131.9,20.7 993.6,20.7 "/>
<polygon points="2391.2,321.6 2360,20.7 2282.5,20.7 2282.5,504.8 2360,504.8 2352,210 2386.7,504.8 2464.3,504.8 2464.3,20.7 
	2386.1,20.7 "/>
<path d="M2652.4,187.2V90.5c0-11.3-1.3-21.2-3.9-29.6c-2.6-8.5-7.1-15.7-13.3-21.8c-6.3-6-14.8-10.6-25.7-13.6
	c-10.9-3-24.8-4.5-41.7-4.5c-16.9,0-30.9,1.5-42,4.5c-11.1,3-19.9,7.6-26.3,13.6c-6.4,6-10.9,13.3-13.3,21.8
	c-2.4,8.5-3.6,18.3-3.6,29.6v96.7c0,10.9,1.3,20.9,3.9,29.9c2.6,9.1,6.1,17.2,10.6,24.5c4.4,7.3,9.5,13.9,15.1,20
	c5.6,6,11.5,11.9,17.5,17.5c6,5.6,11.9,11,17.5,16c5.6,5,10.6,10.4,14.8,16c4.2,5.6,7.7,11.4,10.3,17.2c2.6,5.8,3.9,12.2,3.9,19V435
	c0,2-0.2,3.5-0.6,4.5c-0.4,1-1,1.9-1.8,2.7c-0.8,0.8-1.7,1.3-2.7,1.5c-1,0.2-2.1,0.3-3.3,0.3c-1.6,0-2.9-0.1-3.9-0.3
	c-1-0.2-1.9-0.7-2.7-1.5c-0.8-0.8-1.5-1.7-2.1-2.7c-0.6-1-0.9-2.5-0.9-4.5v-96.7h-75.6V435c0,11.3,1.2,21.2,3.6,29.6
	c2.4,8.5,6.9,15.7,13.3,21.8c6.4,6,15.2,10.6,26.3,13.6c11.1,3,25.1,4.5,42,4.5c16.9,0,30.8-1.5,41.7-4.5c10.9-3,19.4-7.6,25.7-13.6
	c6.2-6,10.7-13.3,13.3-21.8c2.6-8.5,3.9-18.3,3.9-29.6v-96.7c0-10.9-1.3-20.9-3.9-29.9c-2.6-9.1-6.3-17.2-10.9-24.5
	c-4.6-7.3-9.8-13.9-15.4-20c-5.6-6-11.3-11.9-16.9-17.5c-5.6-5.6-11.3-11-16.9-16c-5.6-5-10.8-10.4-15.4-16
	c-4.6-5.6-8.3-11.4-10.9-17.2c-2.6-5.8-3.9-12.4-3.9-19.6V90.5c0-2,0.3-3.5,0.9-4.5c0.6-1,1.2-1.9,1.8-2.7c0.6-0.8,1.5-1.3,2.7-1.5
	c1.2-0.2,2.4-0.3,3.6-0.3c1.6,0,2.9,0.1,3.9,0.3c1,0.2,2,0.7,3,1.5c1,0.8,1.6,1.7,1.8,2.7c0.2,1,0.3,2.5,0.3,4.5v96.7H2652.4z"/>
<polygon points="1812,504.8 1889.7,504.8 1889.7,314.4 1812,328.2 "/>
<polygon points="1812,209.4 1889.7,222.9 1889.7,87.8 1926.9,87.8 1926.9,20.7 1774.8,20.7 1774.8,87.8 1812,87.8 "/>
<polygon points="2026.2,20.7 1948.7,20.7 1948.7,233.1 2026.2,244.9 "/>
<polygon points="1948.7,504.8 2026.2,504.8 2026.2,290.1 1948.7,303.9 "/>
<path d="M2229.6,33.4c-6.7-6.4-15.7-11.2-27.1-14.3c-11.4-3-25.7-4.6-43.1-4.6c-17.5,0-31.6,1.6-42.9,4.6
	c-11.1,3-19.8,7.9-26.4,14.3c-6.4,6.4-10.9,14.3-13.6,23.6c-2.6,9.3-4,19.8-4,31.9v165.6l78.2,13.5V90.2c0-1.7,0.3-3.2,0.7-4.4
	c0.3-1.2,1-2.2,1.8-2.9c0.8-0.6,1.9-1.1,2.8-1.6c1-0.4,2.2-0.5,3.5-0.5c1.7,0,2.9,0.1,4,0.5c1,0.4,2,1,2.8,1.6
	c0.8,0.7,1.6,1.7,2.1,2.9c0.7,1.1,1,2.7,1,4.4v345.1c0,1.6-0.3,3.1-1,4.4c-0.5,1.2-1.3,2-1.8,2.7c-0.7,0.5-1.6,1.1-2.8,1.6
	c-1.3,0.4-2.5,0.7-3.8,0.7c-1.7,0-3-0.2-4-0.7c-1-0.4-2.1-1-3-1.6c-1.1-0.7-1.7-1.6-2-2.7c-0.1-1.3-0.3-2.8-0.3-4.4V268l-78.2,13.9
	v154.5c0,12.5,1.4,23.2,4,32.4c2.7,9,7.2,16.8,13.6,23.2c6.6,6.6,15.3,11.3,26.4,14.3c11.3,3.2,25.4,4.7,42.9,4.7
	c17.4,0,31.7-1.6,43.1-4.7c11.4-3,20.4-7.8,27.1-14.3c6.5-6.4,11.1-14.2,13.6-23.2c2.5-9.2,3.8-19.9,3.8-32.4V88.9
	c0-12.1-1.3-22.6-3.8-31.9C2240.7,47.7,2236.1,39.7,2229.6,33.4z"/>
<path d="M1673.7,435.3c0,1.6-0.3,3.1-0.6,4.2c-0.3,1.3-1.1,2.4-1.9,3c-0.8,0.5-1.7,1.1-2.7,1.6c-1.1,0.3-2.2,0.5-3.5,0.5
	c-1.7,0-3-0.2-4.1-0.5c-0.9-0.5-1.9-1.1-2.8-1.6c-0.8-0.6-1.6-1.7-2-3c-0.8-1.1-0.9-2.7-0.9-4.2v-96.8l-63.2-69.5l63.2-69.7V90.2
	c0-1.6,0.2-3,0.9-4.2c0.5-1.3,1.3-2,1.7-2.8c0.8-0.5,1.6-1.1,2.8-1.6c1.3-0.3,2.5-0.6,3.8-0.6c1.6,0,3,0.3,4.1,0.6
	c0.9,0.5,2,1.1,3,1.6c1.1,0.8,1.7,1.6,1.9,2.8c0.2,1.3,0.3,2.7,0.3,4.2l-0.3,95.2l78.5,13.6V89.1c0-12.4-1.3-23.1-3.9-32.4
	c-2.7-9-7.2-16.7-13.7-23.1c-6.4-6.6-15.3-11.3-26.4-14.3c-11.2-3.1-25.3-4.7-42.8-4.7c-17.5,0-31.8,1.6-43.1,4.7
	c-11.5,3-20.4,7.7-27.2,14.3c-6.4,6.4-11,14.2-13.5,23.1c-2.5,9.3-3.8,20-3.8,32.4v347.5c0,12.1,1.3,22.6,3.8,31.9
	c2.5,9.3,7.1,17.3,13.5,23.6c6.8,6.4,15.7,11.3,27.2,14.3c11.3,3,25.6,4.6,43.1,4.6c17.5,0,31.6-1.6,42.8-4.6
	c11.2-3,20-7.9,26.4-14.3c6.4-6.3,11-14.3,13.7-23.6c2.7-9.3,3.9-19.8,3.9-31.9v-76.1v-21.6l-78.5,13.9L1673.7,435.3z"/>
<path d="M1679.2,222.7l307,46.2l-306.7,46.3l-41.4-46.7L1679.2,222.7 M1673.2,205.9l-56.3,62.6l56.4,63.6l418.3-63.2L1673.2,205.9
	L1673.2,205.9z"/>
</svg>
